<svg xmlns="http://www.w3.org/2000/svg" viewBox="0 0 64 64">
  <defs>
    <linearGradient id="grad" x1="0%" y1="0%" x2="100%" y2="100%">
      <stop offset="0%" stop-color="#2563eb" />
      <stop offset="100%" stop-color="#0f172a" />
    </linearGradient>
  </defs>
  <rect width="64" height="64" rx="14" fill="url(#grad)" />
  <path d="M20 32c0-8 6.5-12 12-12 4.3 0 7.6 1.9 9.3 5.1l-5.3 2.6c-.7-1.5-2.2-2.5-4-2.5-2.9 0-6 1.9-6 6.8 0 4.7 3 6.7 6 6.7 1.7 0 3.2-.9 4-2l5.3 2.7c-1.6 3-4.9 5.1-9.3 5.1-5.5 0-12-4-12-12.4Z" fill="#e2e8f0" />
</svg>
